<svg width="20" height="21" viewBox="0 0 20 21" fill="none" xmlns="http://www.w3.org/2000/svg">
<path d="M18.3853 9.1736L10.8814 1.66891C10.6472 1.4361 10.3303 1.30542 10.0001 1.30542C9.66988 1.30542 9.35307 1.4361 9.11886 1.66891L1.61886 9.1736C1.38605 9.4078 1.25537 9.72462 1.25537 10.0548C1.25537 10.3851 1.38605 10.7019 1.61886 10.9361L9.12277 18.4408C9.35697 18.6736 9.67379 18.8043 10.004 18.8043C10.3343 18.8043 10.6511 18.6736 10.8853 18.4408L18.3892 10.9361C18.622 10.7019 18.7527 10.3851 18.7527 10.0548C18.7527 9.72462 18.622 9.4078 18.3892 9.1736H18.3853ZM10.0001 17.5548L2.50011 10.0548L10.0001 2.55485L17.5001 10.0548L10.0001 17.5548Z" fill="white"/>
</svg>
