<svg width="48" height="49" viewBox="0 0 48 49" fill="none" xmlns="http://www.w3.org/2000/svg">
<rect y="0.47998" width="48" height="48" rx="24" fill="white"/>
<g clip-path="url(#clip0_1_852)">
<path d="M29.0306 25.0105L21.5306 32.5105C21.4609 32.5802 21.3781 32.6355 21.2871 32.6732C21.1961 32.7109 21.0985 32.7303 20.9999 32.7303C20.9014 32.7303 20.8038 32.7109 20.7128 32.6732C20.6217 32.6355 20.539 32.5802 20.4693 32.5105C20.3996 32.4409 20.3443 32.3581 20.3066 32.2671C20.2689 32.176 20.2495 32.0785 20.2495 31.9799C20.2495 31.8814 20.2689 31.7838 20.3066 31.6927C20.3443 31.6017 20.3996 31.519 20.4693 31.4493L27.4396 24.4799L20.4693 17.5105C20.3286 17.3698 20.2495 17.1789 20.2495 16.9799C20.2495 16.7809 20.3286 16.59 20.4693 16.4493C20.61 16.3086 20.8009 16.2295 20.9999 16.2295C21.199 16.2295 21.3898 16.3086 21.5306 16.4493L29.0306 23.9493C29.1003 24.0189 29.1556 24.1017 29.1933 24.1927C29.2311 24.2838 29.2505 24.3813 29.2505 24.4799C29.2505 24.5785 29.2311 24.6761 29.1933 24.7671C29.1556 24.8582 29.1003 24.9409 29.0306 25.0105Z" fill="#262628"/>
</g>
<defs>
<clipPath id="clip0_1_852">
<rect width="24" height="24" fill="white" transform="translate(12 12.48)"/>
</clipPath>
</defs>
</svg>
