<svg width="36" height="37" viewBox="0 0 36 37" fill="none" xmlns="http://www.w3.org/2000/svg">
<g clip-path="url(#clip0_1_766)">
<path d="M14.875 16.4248C14.875 16.259 14.9408 16.1001 15.0581 15.9829C15.1753 15.8657 15.3342 15.7998 15.5 15.7998H20.5C20.6658 15.7998 20.8247 15.8657 20.9419 15.9829C21.0592 16.1001 21.125 16.259 21.125 16.4248C21.125 16.5906 21.0592 16.7495 20.9419 16.8667C20.8247 16.984 20.6658 17.0498 20.5 17.0498H15.5C15.3342 17.0498 15.1753 16.984 15.0581 16.8667C14.9408 16.7495 14.875 16.5906 14.875 16.4248ZM15.5 19.5498H20.5C20.6658 19.5498 20.8247 19.484 20.9419 19.3667C21.0592 19.2495 21.125 19.0906 21.125 18.9248C21.125 18.759 21.0592 18.6001 20.9419 18.4829C20.8247 18.3657 20.6658 18.2998 20.5 18.2998H15.5C15.3342 18.2998 15.1753 18.3657 15.0581 18.4829C14.9408 18.6001 14.875 18.759 14.875 18.9248C14.875 19.0906 14.9408 19.2495 15.0581 19.3667C15.1753 19.484 15.3342 19.5498 15.5 19.5498ZM26.125 12.6748V22.6748C26.125 23.0063 25.9933 23.3243 25.7589 23.5587C25.5245 23.7931 25.2065 23.9248 24.875 23.9248H20.1539L19.0852 25.7951C18.9758 25.9864 18.8178 26.1453 18.6273 26.2559C18.4367 26.3665 18.2203 26.4247 18 26.4247C17.7797 26.4247 17.5633 26.3665 17.3727 26.2559C17.1822 26.1453 17.0242 25.9864 16.9148 25.7951L15.8461 23.9248H11.125C10.7935 23.9248 10.4755 23.7931 10.2411 23.5587C10.0067 23.3243 9.875 23.0063 9.875 22.6748V12.6748C9.875 12.3433 10.0067 12.0253 10.2411 11.7909C10.4755 11.5565 10.7935 11.4248 11.125 11.4248H24.875C25.2065 11.4248 25.5245 11.5565 25.7589 11.7909C25.9933 12.0253 26.125 12.3433 26.125 12.6748ZM24.875 12.6748H11.125V22.6748H16.2086C16.3193 22.6738 16.4282 22.7022 16.5243 22.7571C16.6204 22.812 16.7001 22.8915 16.7555 22.9873L18.0055 25.1748L19.2555 22.9873C19.3108 22.8915 19.3906 22.812 19.4867 22.7571C19.5827 22.7022 19.6917 22.6738 19.8023 22.6748H24.875V12.6748Z" fill="#575757"/>
<rect x="0.5" y="0.799805" width="35" height="35" rx="17.5" stroke="#C3C4C5"/>
</g>
<defs>
<clipPath id="clip0_1_766">
<rect y="0.299805" width="36" height="36" rx="18" fill="white"/>
</clipPath>
</defs>
</svg>
