<svg width="36" height="37" viewBox="0 0 36 37" fill="none" xmlns="http://www.w3.org/2000/svg">
<g clip-path="url(#clip0_1_774)">
<path d="M25.3727 20.6795L21.6922 19.0302L21.682 19.0255C21.491 18.9438 21.2825 18.911 21.0756 18.9301C20.8687 18.9492 20.6698 19.0196 20.4969 19.1349C20.4765 19.1484 20.457 19.163 20.4383 19.1787L18.5367 20.7998C17.332 20.2146 16.0883 18.9802 15.5031 17.7912L17.1266 15.8607C17.1422 15.8412 17.157 15.8216 17.1711 15.8006C17.2839 15.6281 17.3524 15.4305 17.3704 15.2252C17.3884 15.0199 17.3553 14.8134 17.2742 14.624V14.6146L15.6203 10.9279C15.5131 10.6804 15.3287 10.4743 15.0947 10.3403C14.8607 10.2062 14.5896 10.1515 14.3219 10.1841C13.2633 10.3234 12.2916 10.8433 11.5882 11.6467C10.8849 12.4501 10.4981 13.482 10.5 14.5498C10.5 20.7529 15.5469 25.7998 21.75 25.7998C22.8177 25.8017 23.8497 25.4149 24.6531 24.7115C25.4564 24.0082 25.9763 23.0365 26.1156 21.9779C26.1484 21.7103 26.0937 21.4393 25.9598 21.2053C25.8259 20.9713 25.62 20.7868 25.3727 20.6795ZM21.75 24.5498C19.0987 24.5469 16.5569 23.4924 14.6821 21.6176C12.8074 19.7429 11.7529 17.201 11.75 14.5498C11.7471 13.7869 12.0219 13.049 12.5232 12.4739C13.0246 11.8988 13.7181 11.5259 14.4742 11.4248C14.4739 11.4279 14.4739 11.431 14.4742 11.4341L16.1149 15.106L14.5 17.0388C14.4836 17.0577 14.4687 17.0778 14.4555 17.099C14.3379 17.2794 14.2689 17.4871 14.2553 17.702C14.2416 17.9169 14.2836 18.1317 14.3774 18.3256C15.0852 19.7732 16.5438 21.2209 18.007 21.9279C18.2023 22.0207 18.4184 22.0613 18.634 22.0457C18.8497 22.0301 19.0576 21.9588 19.2375 21.8388C19.2576 21.8253 19.2769 21.8107 19.2953 21.7951L21.1945 20.1748L24.8664 21.8193C24.8664 21.8193 24.8727 21.8193 24.875 21.8193C24.7751 22.5765 24.4027 23.2714 23.8275 23.774C23.2524 24.2766 22.5138 24.5523 21.75 24.5498Z" fill="#575757"/>
<rect x="0.5" y="0.799805" width="35" height="35" rx="17.5" stroke="#C3C4C5"/>
</g>
<defs>
<clipPath id="clip0_1_774">
<rect y="0.299805" width="36" height="36" rx="18" fill="white"/>
</clipPath>
</defs>
</svg>
