<svg width="8" height="8" viewBox="0 0 8 8" fill="none" xmlns="http://www.w3.org/2000/svg">
<path d="M5.67689 4.17701L3.17689 6.67701C3.15366 6.70024 3.12609 6.71867 3.09574 6.73124C3.06539 6.74381 3.03287 6.75028 3.00002 6.75028C2.96717 6.75028 2.93464 6.74381 2.90429 6.73124C2.87394 6.71867 2.84637 6.70024 2.82314 6.67701C2.79991 6.65379 2.78149 6.62621 2.76892 6.59586C2.75635 6.56552 2.74988 6.53299 2.74988 6.50014C2.74988 6.46729 2.75635 6.43476 2.76892 6.40442C2.78149 6.37407 2.79991 6.34649 2.82314 6.32326L5.14658 4.00014L2.82314 1.67701C2.77623 1.6301 2.74988 1.56648 2.74988 1.50014C2.74988 1.4338 2.77623 1.37017 2.82314 1.32326C2.87005 1.27635 2.93368 1.25 3.00002 1.25C3.06636 1.25 3.12998 1.27635 3.17689 1.32326L5.67689 3.82326C5.70014 3.84648 5.71858 3.87405 5.73116 3.9044C5.74374 3.93475 5.75021 3.96729 5.75021 4.00014C5.75021 4.03299 5.74374 4.06552 5.73116 4.09587C5.71858 4.12622 5.70014 4.1538 5.67689 4.17701Z" fill="white"/>
</svg>
